<?xml version="1.0" encoding="UTF-8"?>
<svg width="12px" height="12px" viewBox="0 0 12 12" version="1.1" xmlns="http://www.w3.org/2000/svg" xmlns:xlink="http://www.w3.org/1999/xlink">
    <!-- Generator: Sketch 42 (36781) - http://www.bohemiancoding.com/sketch -->
    <title>star-normal</title>
    <desc>Created with Sketch.</desc>
    <defs></defs>
    <g id="--UI-KIT" stroke="none" stroke-width="1" fill="none" fill-rule="evenodd">
        <g id="BlazeNow-UI-KIT-v1" transform="translate(-134.000000, -1766.000000)" fill="#2D9EAB">
            <g id="Group-5-Copy-2" transform="translate(100.000000, 1025.000000)">
                <g id="Group-6-Copy-4" transform="translate(2.000000, 691.000000)">
                    <path d="M38.3082007,50.2008673 L39.8960712,53.573817 C39.9460713,53.6801915 40.0428715,53.7538568 40.1547384,53.7709103 L43.7054135,54.3117284 C43.9872808,54.3546416 44.0998144,54.7177963 43.895814,54.9262119 L41.3264745,57.5517451 C41.245541,57.6344963 41.2084743,57.7537307 41.2276743,57.8705888 L41.8342091,61.577898 C41.8823425,61.87214 41.5876752,62.0966306 41.3356746,61.9576868 L38.1599337,60.2074712 C38.0598001,60.1522571 37.9401999,60.1522571 37.8400663,60.2074712 L34.6643254,61.9578266 C34.4121915,62.0967703 34.1175241,61.8722798 34.1657909,61.5780378 L34.7723257,57.8707285 C34.7913924,57.7538704 34.754459,57.634636 34.6735255,57.5518848 L32.104186,54.9263517 C31.9001856,54.7179361 32.0127192,54.3547814 32.2945865,54.3118682 L35.8452616,53.77105 C35.9571285,53.7539966 36.0539287,53.6803313 36.1040622,53.5739568 L37.6919326,50.2008673 C37.8179329,49.9330442 38.1822004,49.9330442 38.3082007,50.2008673 Z" id="star-normal"></path>
                </g>
            </g>
        </g>
    </g>
</svg>